<?xml version="1.0" encoding="utf-8"?>
<!-- Generator: Adobe Illustrator 25.0.0, SVG Export Plug-In . SVG Version: 6.00 Build 0)  -->
<svg version="1.1" id="Layer_1" xmlns="http://www.w3.org/2000/svg" xmlns:xlink="http://www.w3.org/1999/xlink" x="0px" y="0px"
	 viewBox="0 0 1920 1080" style="enable-background:new 0 0 1920 1080;" xml:space="preserve">
<style type="text/css">
	.st0{fill:#60A5FA;}
	.st1{fill:#FFFFFF;}
	.st2{fill:#0071BC;}
</style>
<g>
	<g>
		<path class="st0" d="M573.05,493.2c0.29-7.63,0.44-15.38,0.44-23.22c0-7.84-0.15-15.59-0.44-23.22h55.03l37.18-40H570.1
			C562,310.1,499.53,243.1,499.53,243.1H367.6c-26.61,0-49.06,19.91-52.23,46.33L313,309.2h-30.14c-20.69,0-38.17,14.98-40.66,34.85
			l-1.23,9.79h-21.89c-17.92,0-33.14,11.56-35.42,26.9l-12.62,85.29c-0.39,2.63-0.39,5.28,0,7.9l12.62,85.3
			c2.28,15.33,17.5,26.9,35.42,26.9h21.89l1.23,9.8c2.49,19.86,19.97,34.84,40.66,34.84H313l2.37,19.76
			c3.17,26.42,25.62,46.34,52.23,46.34h131.93c0,0,61.25-78.94,70.57-163.67h95.16l-37.18-40H573.05z M227,474.76l10.6,84.52h-18.52
			c-4.15,0-7.02-2.21-7.25-3.8l-12.62-85.27c-0.02-0.15-0.02-0.3,0-0.43l12.62-85.29c0.23-1.59,3.1-3.81,7.25-3.81h18.52L227,465.21
			C226.61,468.38,226.61,471.59,227,474.76z M294.46,476.25l14.97,124.78h-26.57c-5.49,0-10.1-3.76-10.72-8.75l-0.77-6.15
			l-0.45-3.58l-13.98-111.43c-0.09-0.75-0.09-1.51,0-2.25l15.2-121.18c0.62-4.99,5.23-8.76,10.72-8.76h26.57l-14.97,124.78
			C293.96,467.87,293.96,472.09,294.46,476.25z M446.79,662.88H367.6c-9.41,0-17.35-7.05-18.47-16.4l-4.07-33.9l-0.37-3.07
			l-1.02-8.48L328.21,472.2c-0.17-1.47-0.17-2.97,0-4.44l15.46-128.83l1.08-8.98l0.19-1.56l4.19-34.92
			c1.12-9.34,9.06-16.38,18.47-16.38h79.19c-24.68,39.02-41.21,110.81-41.21,192.89C405.58,552.07,422.12,623.85,446.79,662.88z"/>
		<path class="st1" d="M1291.92,493.2l-37.18,40h95.16c9.32,84.73,70.57,163.67,70.57,163.67h131.93
			c26.61,0,49.06-19.92,52.23-46.34l2.37-19.76h30.14c20.69,0,38.17-14.98,40.66-34.84l1.23-9.8h21.89
			c17.92,0,33.14-11.57,35.42-26.9l12.62-85.3c0.39-2.62,0.39-5.27,0-7.9l-12.62-85.29c-2.28-15.34-17.5-26.9-35.42-26.9h-21.89
			l-1.23-9.79c-2.49-19.87-19.97-34.85-40.66-34.85H1607l-2.37-19.77c-3.17-26.42-25.62-46.33-52.23-46.33h-131.93
			c0,0-61.25,78.94-70.57,163.66h-95.16l37.18,40h55.03c-0.29,7.63-0.44,15.38-0.44,23.22c0,7.84,0.15,15.59,0.44,23.22H1291.92z
			 M1693,465.21l-10.6-84.53h18.52c4.15,0,7.02,2.22,7.25,3.81l12.62,85.29c0.02,0.13,0.02,0.28,0,0.43l-12.62,85.27
			c-0.23,1.59-3.1,3.8-7.25,3.8h-18.52l10.6-84.52C1693.39,471.59,1693.39,468.38,1693,465.21z M1625.54,463.71l-14.97-124.78h26.57
			c5.49,0,10.1,3.77,10.72,8.76l15.2,121.18c0.09,0.74,0.09,1.5,0,2.25l-13.98,111.43l-0.45,3.58l-0.77,6.15
			c-0.62,4.99-5.23,8.75-10.72,8.75h-26.57l14.97-124.78C1626.04,472.09,1626.04,467.87,1625.54,463.71z M1514.42,469.98
			c0-82.08-16.53-153.87-41.21-192.89h79.19c9.41,0,17.35,7.04,18.47,16.38l4.19,34.92l0.19,1.56l1.08,8.98l15.46,128.83
			c0.17,1.47,0.17,2.97,0,4.44l-15.46,128.83l-1.02,8.48l-0.37,3.07l-4.07,33.9c-1.12,9.35-9.06,16.4-18.47,16.4h-79.19
			C1497.88,623.85,1514.42,552.07,1514.42,469.98z"/>
		<g>
			<polygon class="st1" points="886.57,339.66 886.57,296.13 724.99,469.99 886.57,643.84 886.57,548.69 844.16,548.69 
				844.16,480.6 941.28,480.6 941.28,793.11 640.96,469.99 941.28,146.85 941.28,339.66 			"/>
		</g>
		<g>
			<polygon class="st0" points="1268.42,469.99 968.1,793.11 968.1,480.6 1065.22,480.6 1065.22,548.69 1022.81,548.69 
				1022.81,643.83 1184.39,469.99 1022.81,296.13 1022.81,339.66 968.1,339.66 968.1,146.85 			"/>
		</g>
	</g>
	<path class="st2" d="M279.58,834.13v-4.09c5.46,0.2,11.22,0.3,17.29,0.3l23.81-0.15c1.31,0,3.03-0.05,5.16-0.15
		c1.92,0,3.18,0,3.79,0c9.1,0,16.12,2.22,21.08,6.67c4.95,4.45,7.43,10.77,7.43,18.95c0,11.52-4.9,20.47-14.71,26.84
		c-5.06,3.24-13.09,5.56-24.11,6.97c-4.04,0.51-6.57,1.16-7.58,1.97c-1.21,1.11-1.82,3.44-1.82,6.98c0,11.32,0.76,18.7,2.27,22.14
		c0.71,1.62,1.9,2.83,3.56,3.64c1.67,0.81,4.98,1.82,9.93,3.03v3.94h-30.63c-3.54,0-5.31-1.72-5.31-5.16c0-0.81,0.1-2.22,0.3-4.24
		c0.4-3.74,0.86-12.59,1.36-26.53c0.5-13.95,0.76-23.85,0.76-29.72c0-15.57-0.91-24.51-2.73-26.84
		C288.12,836.97,284.84,835.45,279.58,834.13z M310.66,840.96c-0.41,12.74-0.61,22.85-0.61,30.33c0,7.18,0.08,11.63,0.23,13.34
		c0.15,1.72,0.53,2.58,1.14,2.58c2.02,0,3.69-2.93,5-8.79c2.22,0.2,3.44,0.3,3.64,0.3c5.66,0,10.16-1.77,13.49-5.31
		c3.34-3.54,5-8.29,5-14.25c0-6.07-1.64-10.99-4.93-14.78c-3.29-3.79-7.56-5.69-12.81-5.69
		C317.79,838.68,314.4,839.44,310.66,840.96z"/>
	<path class="st2" d="M416.95,828.37c12.53,0,22.74,3.59,30.63,10.77c4.95,4.55,8.95,10.51,11.98,17.89
		c3.03,7.38,4.55,14.96,4.55,22.74c0,15.06-4.9,27.67-14.71,37.83c-9.81,10.16-21.99,15.24-36.54,15.24
		c-13.95,0-25.35-4.95-34.19-14.86c-8.85-9.91-13.27-22.64-13.27-38.21c0-14.76,4.88-27.01,14.63-36.77
		C389.79,833.25,402.09,828.37,416.95,828.37z M412.41,837.62c-8.59,0-15.57,3.39-20.92,10.16c-5.36,6.77-8.04,15.57-8.04,26.38
		c0,14.15,3.18,25.88,9.55,35.18c6.37,9.3,14.4,13.95,24.11,13.95c8.59,0,15.59-3.41,21-10.23c5.41-6.82,8.11-15.59,8.11-26.31
		c0-14.35-3.39-26.43-10.16-36.24C430.09,841.92,422.21,837.62,412.41,837.62z"/>
	<path class="st2" d="M457.89,830.04h25.93c2.83,0,4.7,0.56,5.61,1.67c0.91,1.11,2.12,4.4,3.64,9.86
		c3.64,12.84,8.95,32.25,15.92,58.22c7.89-22.64,15.36-45.89,22.44-69.75h6.97c11.22,33.16,20.06,56.56,26.53,70.2
		c4.04-13.44,6.42-21.58,7.13-24.41c4.04-16.98,6.07-26.94,6.07-29.87c0-3.23-1.01-5.69-3.03-7.35c-2.02-1.67-5.81-3.16-11.37-4.47
		v-4.09h23.96c4.85,0,7.28,2.22,7.28,6.67c0,4.85-3.18,17.67-9.55,38.44c-6.37,20.77-13.04,40.1-20.02,58h-8.49
		c-1.31-3.44-4.45-12.03-9.4-25.78c-4.35-12.03-9.15-23.96-14.4-35.78l-10.92,28.51c-2.93,7.68-7.33,18.7-13.19,33.05h-7.88
		l-1.06-3.49c-0.81-2.63-3.39-10.97-7.73-25.02c-12.13-39.22-19.41-60.04-21.83-62.47c-2.02-3.13-6.22-5.81-12.58-8.04V830.04z"/>
	<path class="st2" d="M600.27,830.04h64.44c3.13,0,5.13,0.35,5.99,1.06c0.86,0.71,1.39,2.43,1.59,5.16l1.21,21.08h-3.64
		c-3.24-7.28-6.37-11.93-9.4-13.95c-3.03-2.02-8.39-3.03-16.07-3.03c-2.83,0-7.23,0.3-13.19,0.91l-0.76,35.33
		c0,2.43,0.4,3.64,1.21,3.64c1.52,0,3.18-3.34,5-10.01c1.82,0.2,3.94,0.3,6.37,0.3c5.36,0,11.22-0.61,17.59-1.82
		c0.3-0.1,0.76-0.15,1.36-0.15c1.52,0,2.27,0.76,2.27,2.27c0,0.71-0.1,1.47-0.3,2.27l-2.73,11.52c-4.65,0.3-8.09,0.45-10.31,0.45
		c-2.22,0-5.06-0.1-8.49-0.3c-3.44-0.2-5.56-0.3-6.37-0.3c-2.63,0-4.3,0.96-5,2.88c-0.41,0.91-0.61,3.03-0.61,6.37
		c0,13.14,0.76,20.87,2.27,23.2c1.21,1.92,4.25,2.88,9.1,2.88c12.63,0,21.28-1.06,25.93-3.18c3.23-1.52,6.97-6.62,11.22-15.31h3.49
		l-4.85,23.96c-0.51,2.73-1.21,4.4-2.12,5c-0.91,0.61-2.98,0.91-6.22,0.91h-50.95c-3.03,0-5.11-0.4-6.22-1.21
		c-1.11-0.81-1.67-2.32-1.67-4.55c0-0.91,0.15-3.74,0.45-8.49l0.15-3.03c1.21-19.71,1.82-34.77,1.82-45.18
		c0-18.29-0.91-28.45-2.73-30.48c-1.11-1.21-4.4-2.58-9.86-4.09V830.04z"/>
	<path class="st2" d="M726.58,915.61c0.87,0.34,2.77,0.96,6.48,1.63l5.88,1.07c-6.04-18.24-8.66-22.26-9.14-22.89
		c-0.31-0.41-1.59-1.07-4.45-1.22c0.01,9.02,0.38,16,1.1,20.77C726.49,915.23,726.54,915.44,726.58,915.61z M725.86,848.83
		c-0.11,4.51-0.2,8.95-0.26,13.3c2.02-0.24,3.32-0.66,4.13-1.02c0.94-0.43,1.7-1.16,2.4-2.3c0.77-1.26,1.12-2.6,1.12-4.21
		c0-2.98-0.93-3.82-1.32-4.17C730.76,849.38,728.72,848.84,725.86,848.83z"/>
	<path class="st2" d="M685.03,833.98v-3.94l28.2,0.61c3.84,0,8.29-0.1,13.34-0.3c5.05-0.2,10.26-0.3,15.62-0.3
		c6.47,0,11.55,1.69,15.24,5.08c3.69,3.39,5.53,8.01,5.53,13.87c0,9-3.34,16.22-10.01,21.68c-4.25,3.44-10.01,5.71-17.29,6.82
		c8.89,1.01,14.38,2.12,16.45,3.34c2.07,1.21,4.37,4.6,6.9,10.16l8.49,18.35c3.34,7.18,5.84,11.6,7.51,13.27
		c1.67,1.67,5.03,3.16,10.08,4.47v4.09h-25.93c-2.73,0-4.52-0.61-5.38-1.82c-0.86-1.21-2.45-5.36-4.78-12.43
		c-4.85-14.86-8.59-24.03-11.22-27.52c-2.63-3.49-7.18-5.23-13.65-5.23c-2.53,0-4.3,0.15-5.31,0.46c-1.72,0.61-2.78,1.92-3.18,3.94
		c-0.2,1.21-0.3,2.98-0.3,5.31c0,9.7,0.4,17.24,1.21,22.59c0.5,3.24,1.69,5.56,3.56,6.97c1.87,1.42,5.58,2.63,11.14,3.64v4.09
		h-30.02c-4.04,0-6.07-1.87-6.07-5.61c0-0.4,0.1-1.72,0.3-3.94c1.41-15.77,2.12-34.22,2.12-55.34c0-16.68-1.11-26.13-3.34-28.35
		C693.06,836.71,689.98,835.4,685.03,833.98z M721.11,872.34h0.61c4.95,0,9-0.71,12.13-2.12c2.83-1.31,5.1-3.39,6.82-6.22
		c1.72-2.83,2.58-5.96,2.58-9.4c0-4.95-1.54-8.82-4.62-11.6c-3.08-2.78-7.35-4.17-12.81-4.17c-2.83,0-6.07,0.46-9.7,1.37
		c-0.41,12.54-0.61,24.46-0.61,35.78v0.61c0,2.73,0.4,4.09,1.21,4.09C718.23,880.68,719.7,877.9,721.11,872.34z"/>
	<path class="st1" d="M825.28,830.04h25.78c3.64,0,5.46,2.43,5.46,7.28c0-0.2-0.2,4.75-0.61,14.86c-0.2,5.06-0.3,9.55-0.3,13.5
		c0,6.27,0.08,10.08,0.23,11.45c0.15,1.36,0.53,2.05,1.14,2.05c1.72,0,3.28-3.34,4.7-10.01c2.63-0.1,4.7-0.15,6.22-0.15
		c3.34,0,9.8,0.2,19.41,0.61c2.43,0.1,4.75,0.15,6.97,0.15c4.35,0,7.05-0.58,8.11-1.74c1.06-1.16,1.59-4.17,1.59-9.02
		c0-10.11-0.81-16.58-2.43-19.41c-1.01-1.82-4.85-3.69-11.52-5.61v-3.94h25.17c3.94,0,6.16,0.86,6.67,2.58
		c0.3,0.71,0.45,1.92,0.45,3.64c0,0.41-0.05,1.26-0.15,2.58c-0.41,11.73-0.61,26.99-0.61,45.79c0,19.31,0.55,30.88,1.67,34.72
		c0.71,2.33,1.69,3.92,2.96,4.78c1.26,0.86,4.22,1.89,8.87,3.11v3.94h-27.14c-4.15,0-6.22-2.22-6.22-6.67
		c0-1.82,0.3-8.14,0.91-18.95c0.61-10.82,0.91-19.36,0.91-25.62v-0.46c0-3.54-0.41-5.31-1.21-5.31c-1.42,0-3.08,3.29-5,9.86
		c-1.92,0.1-4.2,0.15-6.82,0.15c-6.17,0-13.49-0.2-21.99-0.61c-2.12-0.1-4.2-0.15-6.22-0.15c-3.13,0-5.16,0.86-6.07,2.58
		c-0.61,1.11-0.91,3.44-0.91,6.98c0,5.26,0.35,12.13,1.06,20.62c0.4,4.75,1.46,7.88,3.18,9.4c1.72,1.52,5.71,2.93,11.98,4.24v3.94
		h-28.81c-3.74,0-5.97-0.81-6.67-2.43c-0.3-0.71-0.45-1.77-0.45-3.18c0-0.3,0.05-1.21,0.15-2.73c1.41-20.72,2.12-37.1,2.12-49.13
		c0-14.86-0.25-24.72-0.76-29.57c-0.3-3.03-1.11-5.1-2.43-6.22c-1.31-1.11-4.45-2.43-9.4-3.94V830.04z"/>
	<path class="st1" d="M990.4,828.37c12.53,0,22.74,3.59,30.63,10.77c4.95,4.55,8.95,10.51,11.98,17.89
		c3.03,7.38,4.55,14.96,4.55,22.74c0,15.06-4.9,27.67-14.71,37.83c-9.8,10.16-21.99,15.24-36.54,15.24
		c-13.95,0-25.35-4.95-34.19-14.86c-8.85-9.91-13.27-22.64-13.27-38.21c0-14.76,4.88-27.01,14.63-36.77
		C963.24,833.25,975.54,828.37,990.4,828.37z M985.85,837.62c-8.59,0-15.57,3.39-20.92,10.16c-5.36,6.77-8.04,15.57-8.04,26.38
		c0,14.15,3.18,25.88,9.55,35.18c6.37,9.3,14.4,13.95,24.11,13.95c8.59,0,15.59-3.41,21-10.23c5.41-6.82,8.11-15.59,8.11-26.31
		c0-14.35-3.39-26.43-10.16-36.24C1003.54,841.92,995.66,837.62,985.85,837.62z"/>
	<path class="st1" d="M1041.81,830.04h26.53c3.13,0,4.7,2.02,4.7,6.06v2.58c0,2.63-0.15,10.87-0.45,24.72
		c-0.3,13.85-0.46,22.09-0.46,24.72c0,10.01,0.66,16.68,1.97,20.01c3.13,7.78,9.96,11.67,20.47,11.67c6.57,0,13.14-1.46,19.71-4.4
		c1.31-15.97,1.97-33.26,1.97-51.86c0-12.03-0.53-19.48-1.59-22.36c-1.06-2.88-4.02-5.03-8.87-6.44l-3.18-0.91v-3.79h23.96
		c2.32,0,3.84,0.66,4.55,1.97c0.5,0.91,0.71,2.63,0.61,5.16l-0.15,6.07c-0.51,20.22-0.76,33.46-0.76,39.73
		c0,3.94,0.18,9.07,0.53,15.39c0.35,6.32,0.53,12.26,0.53,17.82v1.82c0,3.24-1.42,5.56-4.25,6.98c-10.61,5.26-22.44,7.88-35.48,7.88
		c-14.86,0-25.73-3.84-32.6-11.52c-4.04-4.55-6.07-11.47-6.07-20.77c0-2.63,0.15-7.48,0.46-14.56c0.3-7.07,0.45-14.1,0.45-21.08
		c0-15.26-0.81-24.01-2.43-26.23c-1.31-1.72-4.7-3.34-10.16-4.85V830.04z"/>
	<path class="st1" d="M1205.86,857.79h-3.64c-1.11-4.04-2.48-7.48-4.09-10.31c-3.74-6.67-9.45-10.01-17.13-10.01
		c-4.85,0-8.85,1.52-11.98,4.55c-3.13,3.03-4.7,6.93-4.7,11.67c0,4.95,1.92,8.49,5.76,10.61c2.73,1.52,7.98,2.93,15.77,4.25
		c9.6,1.62,16.68,3.99,21.23,7.13c6.37,4.35,9.55,11.37,9.55,21.08c0,10.61-3.56,19.28-10.69,26c-7.13,6.72-16.3,10.08-27.52,10.08
		c-10.82,0-20.12-1.87-27.9-5.61c-2.73-1.31-4.09-2.98-4.09-5c0-1.11,0.2-2.33,0.61-3.64l5.31-17.89h3.94
		c1.92,5.36,3.84,9.45,5.76,12.28c4.45,6.77,10.76,10.16,18.95,10.16c5.76,0,10.56-1.84,14.4-5.54c3.84-3.69,5.76-8.31,5.76-13.87
		c0-5.86-2.02-10.16-6.06-12.89c-2.93-2.02-9.05-3.84-18.35-5.46c-10.01-1.72-17.03-4.3-21.08-7.73c-4.65-3.84-6.97-9.7-6.97-17.59
		c0-9.4,3.18-17.03,9.55-22.9c6.37-5.86,14.65-8.79,24.87-8.79c4.55,0,9.4,0.61,14.56,1.82c5.15,1.21,8.84,2.63,11.07,4.25
		c1.31,0.91,1.97,2.07,1.97,3.49c0,0.91-0.2,2.12-0.61,3.64L1205.86,857.79z"/>
	<path class="st1" d="M1221.78,830.04h64.44c3.13,0,5.13,0.35,5.99,1.06c0.86,0.71,1.39,2.43,1.59,5.16l1.21,21.08h-3.64
		c-3.24-7.28-6.37-11.93-9.4-13.95c-3.03-2.02-8.39-3.03-16.07-3.03c-2.83,0-7.23,0.3-13.19,0.91l-0.76,35.33
		c0,2.43,0.4,3.64,1.21,3.64c1.52,0,3.18-3.34,5-10.01c1.82,0.2,3.94,0.3,6.37,0.3c5.36,0,11.22-0.61,17.59-1.82
		c0.3-0.1,0.76-0.15,1.36-0.15c1.52,0,2.27,0.76,2.27,2.27c0,0.71-0.1,1.47-0.3,2.27l-2.73,11.52c-4.65,0.3-8.09,0.45-10.31,0.45
		c-2.22,0-5.06-0.1-8.49-0.3c-3.44-0.2-5.56-0.3-6.37-0.3c-2.63,0-4.3,0.96-5,2.88c-0.41,0.91-0.61,3.03-0.61,6.37
		c0,13.14,0.76,20.87,2.27,23.2c1.21,1.92,4.24,2.88,9.1,2.88c12.63,0,21.28-1.06,25.93-3.18c3.23-1.52,6.98-6.62,11.22-15.31h3.49
		l-4.85,23.96c-0.51,2.73-1.21,4.4-2.12,5c-0.91,0.61-2.98,0.91-6.22,0.91h-50.95c-3.03,0-5.11-0.4-6.22-1.21
		c-1.11-0.81-1.67-2.32-1.67-4.55c0-0.91,0.15-3.74,0.46-8.49l0.15-3.03c1.21-19.71,1.82-34.77,1.82-45.18
		c0-18.29-0.91-28.45-2.73-30.48c-1.11-1.21-4.4-2.58-9.86-4.09V830.04z"/>
	<path class="st2" d="M1426.63,859.15h-3.64c-1.82-6.37-3.44-10.82-4.85-13.34c-3.03-5.56-8.09-8.34-15.16-8.34
		c-8.39,0-15.52,3.64-21.38,10.92c-5.86,7.28-8.79,16.07-8.79,26.38c0,6.87,1.41,13.22,4.24,19.03c2.83,5.81,6.72,10.34,11.68,13.57
		c6.16,4.04,13.95,6.07,23.35,6.07c2.22,0,5.16-0.2,8.79-0.61c0.2-4.25,0.3-7.18,0.3-8.79c0-5.46-0.63-8.82-1.9-10.08
		c-1.27-1.26-5.69-2.86-13.27-4.78v-3.94h25.02c3.13,0,5.05,0.56,5.76,1.67c0.4,0.81,0.61,2.07,0.61,3.79v18.95
		c0,1.92-0.23,3.26-0.68,4.02c-0.46,0.76-1.64,1.9-3.56,3.41l-16.53,12.74c-2.73,2.12-5.71,3.18-8.95,3.18
		c-9.2,0-18.04-2.17-26.53-6.52c-8.09-4.14-14.43-10.13-19.03-17.97c-4.6-7.83-6.9-16.55-6.9-26.16c0-15.26,5.03-28.07,15.09-38.44
		c10.06-10.36,22.46-15.54,37.22-15.54c6.77,0,12.71,0.73,17.82,2.2c5.1,1.47,7.66,3.21,7.66,5.23c0,1.31-0.25,2.83-0.76,4.55
		L1426.63,859.15z"/>
	<path class="st2" d="M1433.91,830.04h23.96c3.54,0,5.81,0.66,6.82,1.97c1.82,2.22,6.42,11.58,13.8,28.05
		c2.12,4.65,5.41,11.67,9.86,21.08c10.71-20.62,16.07-33.41,16.07-38.36c0-3.44-3.03-6.11-9.1-8.04l-3.34-1.06v-3.64h22.14
		c4.65,0,6.98,2.02,6.98,6.06c0,3.84-2.53,10.56-7.58,20.17c-5.56,10.51-10.51,19.31-14.86,26.38c-2.93,4.65-4.68,7.68-5.23,9.1
		c-0.56,1.42-0.83,3.34-0.83,5.76c0,11.42,0.81,19.06,2.43,22.89c0.81,1.92,1.92,3.24,3.34,3.94c1.41,0.71,4.8,1.67,10.16,2.88v3.94
		h-29.57c-4.15,0-6.22-1.92-6.22-5.76c0,1.82,0.4-5.2,1.21-21.08c0.2-3.94,0.3-6.62,0.3-8.04c0-3.03-1.27-7.18-3.79-12.43
		c-11.22-23.25-19.11-37.55-23.65-42.91c-2.43-2.83-6.72-5.26-12.89-7.28V830.04z"/>
	<path class="st2" d="M1525.64,830.04h38.97c8.69,14.56,15.36,26.84,20.02,36.84c5.86-13.24,12.08-25.52,18.65-36.84h18.04
		c2.63,0,4.32,0.51,5.08,1.52c0.76,1.01,1.14,2.83,1.14,5.46c0,0.81-0.1,7.33-0.3,19.56l-0.3,23.5c0,14.15,0.25,25.12,0.76,32.9
		c0.3,5.06,1.16,8.37,2.58,9.93c1.41,1.57,4.8,3.06,10.16,4.47v3.79h-27.9c-3.64,0-5.46-1.92-5.46-5.76c0-0.4,0.05-1.46,0.15-3.18
		c1.11-19.11,1.67-38.97,1.67-59.59c0-3.74-0.05-6.16-0.15-7.28v-0.46c0-2.43-0.45-3.64-1.36-3.64c-0.81,0-2.48,2.43-5,7.28
		c-6.37,12.13-12.13,25.17-17.28,39.12h-7.28c-8.59-22.54-15.77-37.55-21.53-45.03c-0.71-0.81-1.31-1.21-1.82-1.21
		c-0.91,0-1.36,1.21-1.36,3.64v0.45c0,0.81-0.08,5.66-0.23,14.56c-0.15,8.9-0.23,16.07-0.23,21.53c0,14.86,0.58,24.01,1.74,27.44
		c1.16,3.44,4.57,5.86,10.23,7.28c0.71,0.1,1.92,0.41,3.64,0.91v3.94h-26.23c-4.15,0-6.22-1.87-6.22-5.61c0-0.61,0.1-2.02,0.3-4.25
		c1.41-15.56,2.12-34.32,2.12-56.25c0-13.54-0.56-21.68-1.67-24.41c-1.11-2.73-4.75-4.9-10.92-6.52V830.04z"/>
</g>
</svg>
